<svg width="160" height="51" viewBox="0 0 160 51" fill="none" xmlns="http://www.w3.org/2000/svg">
<path d="M85.2479 45.0562C83.8493 46.7234 81.8726 48.0211 79.3176 48.9492C76.7624 49.8601 73.9311 50.3157 70.8235 50.3157C67.5606 50.3157 64.6948 49.6109 62.2259 48.2016C59.7744 46.775 57.8754 44.7124 56.5287 42.014C55.1994 39.3157 54.5175 36.1446 54.4829 32.5008V29.9484C54.4829 26.2016 55.1131 22.9618 56.3733 20.2289C57.6509 17.4789 59.4809 15.382 61.8634 13.9382C64.2631 12.4773 67.0685 11.7469 70.2797 11.7469C74.7512 11.7469 78.2471 12.8124 80.7677 14.9438C83.2883 17.0578 84.7817 20.143 85.2479 24.1992H77.686C77.3408 22.0508 76.5725 20.4781 75.3813 19.4812C74.2073 18.4843 72.5846 17.9859 70.5128 17.9859C67.8713 17.9859 65.8601 18.9742 64.4789 20.9508C63.0978 22.9273 62.3986 25.8663 62.3814 29.768V32.1657C62.3814 36.1016 63.1323 39.075 64.6344 41.0859C66.1363 43.0969 68.3374 44.1023 71.2379 44.1023C74.1556 44.1023 76.2359 43.4836 77.4789 42.2461V35.775H70.4092V30.0773H85.2479V45.0562ZM107.311 49.8C106.966 49.1297 106.716 48.2961 106.561 47.2992C104.748 49.3101 102.391 50.3157 99.4908 50.3157C96.7457 50.3157 94.4669 49.525 92.6542 47.9438C90.8587 46.3624 89.961 44.3688 89.961 41.9624C89.961 39.0062 91.0572 36.7376 93.2498 35.1562C95.4596 33.575 98.6448 32.7758 102.805 32.7586H106.25V31.1601C106.25 29.8711 105.913 28.8399 105.24 28.0663C104.584 27.293 103.539 26.9062 102.106 26.9062C100.846 26.9062 99.8533 27.207 99.1282 27.8086C98.4205 28.4101 98.0664 29.2351 98.0664 30.2836H90.5824C90.5824 28.668 91.0831 27.1727 92.0845 25.7977C93.0858 24.4227 94.5014 23.3484 96.3314 22.575C98.1615 21.7843 100.216 21.389 102.495 21.389C105.948 21.389 108.684 22.257 110.704 23.993C112.741 25.7118 113.76 28.1351 113.76 31.2632V43.3547C113.777 46.0016 114.148 48.0039 114.873 49.3618V49.8H107.311ZM101.122 44.618C102.227 44.618 103.246 44.3773 104.178 43.8961C105.11 43.3977 105.801 42.7359 106.25 41.9109V37.1157H103.453C99.7066 37.1157 97.7126 38.4047 97.4708 40.9828L97.445 41.4211C97.445 42.3492 97.773 43.1141 98.429 43.7157C99.085 44.3172 99.9828 44.618 101.122 44.618ZM128.469 15.0469V21.9047H133.26V27.3703H128.469V41.2922C128.469 42.3234 128.667 43.0624 129.064 43.5093C129.462 43.9562 130.221 44.1797 131.343 44.1797C132.172 44.1797 132.906 44.1196 133.545 43.9992V49.6453C132.077 50.0922 130.566 50.3157 129.013 50.3157C123.764 50.3157 121.088 47.6773 120.985 42.4008V27.3703H116.893V21.9047H120.985V15.0469H128.469ZM152.604 42.0913C152.604 41.1804 152.146 40.4672 151.231 39.9516C150.334 39.4188 148.883 38.9461 146.881 38.5336C140.217 37.1413 136.885 34.3227 136.885 30.0773C136.885 27.6023 137.912 25.5399 139.967 23.8899C142.038 22.2227 144.74 21.389 148.073 21.389C151.629 21.389 154.468 22.2227 156.592 23.8899C158.733 25.557 159.804 27.7227 159.804 30.3868H152.319C152.319 29.3211 151.974 28.4446 151.283 27.757C150.593 27.0523 149.514 26.7 148.046 26.7C146.787 26.7 145.811 26.9836 145.12 27.5508C144.43 28.118 144.084 28.8399 144.084 29.7163C144.084 30.5413 144.473 31.2118 145.25 31.7273C146.044 32.2258 147.373 32.664 149.238 33.0422C151.102 33.4031 152.674 33.8157 153.951 34.2797C157.905 35.7234 159.881 38.2242 159.881 41.782C159.881 44.3258 158.785 46.3882 156.592 47.9696C154.4 49.5336 151.569 50.3157 148.098 50.3157C145.751 50.3157 143.661 49.9031 141.831 49.0781C140.019 48.2359 138.594 47.093 137.558 45.6492C136.522 44.1882 136.005 42.6157 136.005 40.9312H143.1C143.169 42.2547 143.661 43.2688 144.576 43.9734C145.492 44.6781 146.717 45.0304 148.254 45.0304C149.686 45.0304 150.766 44.764 151.491 44.2312C152.233 43.6812 152.604 42.968 152.604 42.0913Z" fill="#A9A7FB"/>
<path d="M9.73915 49.4833H37.8908C40.8938 49.4833 43.3264 47.0473 43.3264 44.0444V21.1824C48.2512 20.8289 51.1526 15.3163 48.4892 11.0148L46.9665 8.55783C46.369 7.59254 45.5349 6.79586 44.5432 6.24336C43.5515 5.69085 42.435 5.40084 41.2998 5.40083H37.1837V3.71034C37.1841 3.28673 37.1011 2.86718 36.9393 2.47568C36.7775 2.08419 36.5401 1.72841 36.2408 1.42872C35.9413 1.12902 35.5858 0.891268 35.1946 0.729045C34.8031 0.566836 34.3837 0.483337 33.96 0.483337C31.9308 0.483337 29.9847 1.28943 28.5498 2.72427C27.1149 4.1591 26.3088 6.10516 26.3088 8.13434V18.4104C22.4726 18.8409 19.5535 20.6924 17.4114 23.2684C15.0033 26.1593 13.5963 29.9149 12.7563 33.5024C12.0344 36.7388 11.6242 40.0367 11.5312 43.3513C11.4962 44.3733 11.4962 45.2693 11.5032 45.9833H9.74264C8.62249 45.9835 7.52672 45.6563 6.59006 45.0419C5.65339 44.4277 4.91665 43.5531 4.47044 42.5258C4.02422 41.4983 3.88796 40.363 4.07842 39.2592C4.26887 38.1554 4.77775 37.1314 5.54248 36.3129L8.33209 33.3203C10.2968 31.2133 11.3671 28.426 11.3175 25.5457C11.2679 22.6652 10.1022 19.9164 8.06608 17.8783L5.32898 15.1378C5.16753 14.9707 4.97443 14.8373 4.76091 14.7457C4.54739 14.654 4.31776 14.6057 4.08538 14.6036C3.85301 14.6017 3.62256 14.6459 3.40749 14.7339C3.19241 14.8218 2.99701 14.9518 2.83268 15.1161C2.66838 15.2805 2.53842 15.4759 2.45042 15.6909C2.36243 15.906 2.31816 16.1364 2.32018 16.3688C2.32219 16.6012 2.37047 16.8308 2.46219 17.0443C2.55391 17.2578 2.68723 17.4509 2.85438 17.6124L5.59499 20.3529C6.99072 21.749 7.7898 23.6326 7.82375 25.6063C7.85771 27.5801 7.12389 29.49 5.77699 30.9333L2.98389 33.9258C1.75601 35.2433 0.939399 36.8904 0.634188 38.6652C0.328976 40.4399 0.548475 42.2652 1.26573 43.9171C1.98298 45.5689 3.16681 46.9756 4.67198 47.9643C6.17716 48.9531 7.93823 49.481 9.73915 49.4833ZM33.6835 3.99384V7.15083C33.6835 7.61497 33.8679 8.06009 34.1961 8.38827C34.5243 8.71646 34.9695 8.90083 35.4336 8.90083H41.2998C42.3954 8.90083 43.4139 9.46784 43.995 10.4023L45.5175 12.8593C45.8161 13.3393 45.9807 13.8905 45.9944 14.4556C46.0081 15.0208 45.8703 15.5793 45.5953 16.0731C45.3203 16.5671 44.9181 16.9784 44.4306 17.2645C43.943 17.5505 43.3877 17.7008 42.8223 17.6998H41.5798C41.1157 17.6998 40.6705 17.8842 40.3423 18.2123C40.0141 18.5405 39.8298 18.9857 39.8298 19.4498V44.0444C39.8298 44.5586 39.6255 45.0518 39.2618 45.4154C38.8982 45.7791 38.405 45.9833 37.8908 45.9833H35.9552V44.0444C35.9556 42.8459 35.7199 41.659 35.2616 40.5515C34.8031 39.444 34.1311 38.4378 33.2837 37.5901C32.4365 36.7425 31.4303 36.07 30.323 35.6113C29.2157 35.1525 28.0289 34.9164 26.8303 34.9164H23.7572C23.2931 34.9164 22.8479 35.1008 22.5197 35.429C22.1915 35.7571 22.0071 36.2022 22.0071 36.6664C22.0071 37.1305 22.1915 37.5755 22.5197 37.9037C22.8479 38.2319 23.2931 38.4164 23.7572 38.4164H26.8303C29.9349 38.4164 32.455 40.9364 32.455 44.0444V45.9833H15.0033C14.9928 45.3078 14.9964 44.4538 15.0279 43.4669C15.1119 40.9398 15.3953 37.6044 16.1653 34.2969C16.9424 30.9649 18.1849 27.8043 20.0995 25.5083C21.9582 23.2753 24.4747 21.8158 28.0589 21.8158C28.5229 21.8158 28.9682 21.6314 29.2964 21.3033C29.6246 20.9751 29.8089 20.53 29.8089 20.0658V8.13434C29.8089 5.93634 31.5205 4.13384 33.6835 3.99384Z" fill="#A9A7FB"/>
</svg>
