<svg width="45" height="45" viewBox="0 0 45 45" fill="none" xmlns="http://www.w3.org/2000/svg">
<path d="M17.5781 7.03125C16.0734 7.03125 14.7628 7.88625 13.9303 9.05344C13.0978 10.2206 12.6562 11.7281 12.6562 13.3594C12.6562 14.9906 13.0978 16.4995 13.9303 17.6667C14.7628 18.8339 16.0734 19.6875 17.5781 19.6875C19.0828 19.6875 20.3934 18.8325 21.2259 17.6653C22.0584 16.4981 22.5 14.9906 22.5 13.3594C22.5 11.7281 22.0584 10.2192 21.2259 9.05203C20.3934 7.88484 19.0828 7.03125 17.5781 7.03125ZM22.5 13.3594C22.5 14.9906 22.9416 16.4995 23.7741 17.6667C24.6066 18.8339 25.9186 19.6875 27.4219 19.6875C28.9266 19.6875 30.2372 18.8325 31.0697 17.6653C31.9022 16.4981 32.3438 14.9906 32.3438 13.3594C32.3438 11.7281 31.9022 10.2192 31.0697 9.05203C30.2372 7.88484 28.9266 7.03125 27.4219 7.03125C25.9172 7.03125 24.6066 7.88625 23.7741 9.05344C22.9416 10.2206 22.5 11.7281 22.5 13.3594ZM17.5781 9.84375C18.0169 9.84375 18.5006 10.0631 18.9422 10.6791C19.3781 11.2936 19.6875 12.2723 19.6875 13.3594C19.6875 14.4464 19.3781 15.4266 18.9422 16.0397C18.5006 16.6556 18.0169 16.875 17.5781 16.875C17.1394 16.875 16.6556 16.6556 16.2141 16.0397C15.7781 15.4252 15.4688 14.4464 15.4688 13.3594C15.4688 12.2723 15.7781 11.2922 16.2141 10.6791C16.6556 10.0631 17.1394 9.84375 17.5781 9.84375ZM27.4219 9.84375C27.8606 9.84375 28.3444 10.0631 28.7859 10.6791C29.2219 11.2936 29.5312 12.2723 29.5312 13.3594C29.5312 14.4464 29.2219 15.4266 28.7859 16.0397C28.3444 16.6556 27.8606 16.875 27.4219 16.875C26.9831 16.875 26.4994 16.6556 26.0578 16.0397C25.6219 15.4252 25.3125 14.4464 25.3125 13.3594C25.3125 12.2723 25.6219 11.2922 26.0578 10.6791C26.4994 10.0631 26.9831 9.84375 27.4219 9.84375ZM10.5469 16.875C9.04219 16.875 7.73156 17.73 6.89906 18.8972C6.06656 20.0644 5.625 21.5719 5.625 23.2031C5.625 24.8344 6.06656 26.3433 6.89906 27.5105C7.73156 28.6777 9.04219 29.5313 10.5469 29.5313C12.0516 29.5313 13.3622 28.6763 14.1947 27.5091C15.0272 26.3419 15.4688 24.8344 15.4688 23.2031C15.4688 21.5719 15.0272 20.063 14.1947 18.8958C13.3622 17.7286 12.0516 16.875 10.5469 16.875ZM34.4531 16.875C32.9484 16.875 31.6378 17.73 30.8053 18.8972C29.9728 20.0644 29.5312 21.5719 29.5312 23.2031C29.5312 24.8344 29.9728 26.3433 30.8053 27.5105C31.6378 28.6777 32.9484 29.5313 34.4531 29.5313C35.9578 29.5313 37.2684 28.6763 38.1009 27.5091C38.9334 26.3419 39.375 24.8344 39.375 23.2031C39.375 21.5719 38.9334 20.063 38.1009 18.8958C37.2684 17.7286 35.9578 16.875 34.4531 16.875ZM10.5469 19.6875C10.9856 19.6875 11.4694 19.9069 11.9109 20.5228C12.3469 21.1373 12.6562 22.1161 12.6562 23.2031C12.6562 24.2902 12.3469 25.2703 11.9109 25.8834C11.4694 26.4994 10.9856 26.7188 10.5469 26.7188C10.1081 26.7188 9.62438 26.4994 9.18281 25.8834C8.74688 25.2703 8.4375 24.2902 8.4375 23.2031C8.4375 22.1161 8.74688 21.1359 9.18281 20.5228C9.62438 19.9069 10.1081 19.6875 10.5469 19.6875ZM34.4531 19.6875C34.8919 19.6875 35.3756 19.9069 35.8172 20.5228C36.2531 21.1373 36.5625 22.1161 36.5625 23.2031C36.5625 24.2902 36.2531 25.2703 35.8172 25.8834C35.3756 26.4994 34.8919 26.7188 34.4531 26.7188C34.0144 26.7188 33.5306 26.4994 33.0891 25.8834C32.6531 25.2689 32.3438 24.2902 32.3438 23.2031C32.3438 22.1161 32.6531 21.1359 33.0891 20.5228C33.5306 19.9069 34.0144 19.6875 34.4531 19.6875ZM22.5 22.5C20.6255 22.5 19.3177 23.7164 18.675 24.7852C18.0366 25.8539 17.6428 26.7427 17.2687 27.1139C17.0536 27.3347 15.6966 27.8452 14.2819 28.5666C13.5745 28.928 12.8616 29.4103 12.2611 30.1486C11.6564 30.8869 11.2486 31.9064 11.2486 33.0497C11.2486 35.7497 13.4705 37.9716 16.1705 37.9716C17.3883 37.9716 18.6595 37.5778 19.9041 37.2263C21.1542 36.8663 22.5 36.5625 22.5 36.5625C22.5 36.5625 23.8458 36.8663 25.0931 37.2234C26.3391 37.575 27.6103 37.9688 28.8281 37.9688C31.5281 37.9688 33.75 35.7469 33.75 33.0469C33.75 31.9303 33.338 30.9094 32.7375 30.1922C32.1398 29.4708 31.4198 29.025 30.7181 28.6523C29.3119 27.907 27.9295 27.3164 27.7298 27.1139C27.3923 26.7806 27.0127 25.8623 26.3658 24.788C25.7203 23.7094 24.3844 22.5 22.5 22.5ZM22.5 25.3125C23.4281 25.3125 23.5308 25.5375 23.9484 26.235C24.3703 26.9311 24.6853 28.1138 25.7063 29.1361C26.8664 30.2892 28.3317 30.5423 29.3991 31.1105C29.9334 31.3945 30.3412 31.6969 30.5859 31.9894C30.8292 32.2805 30.9375 32.5463 30.9375 33.0441C30.9375 34.2253 30.0094 35.1534 28.8281 35.1534C28.4203 35.1534 27.1069 34.8441 25.8834 34.4925C24.66 34.1452 23.6475 33.7472 22.5 33.7472C21.3525 33.7472 20.34 34.1452 19.1166 34.4925C17.8931 34.8441 16.5797 35.1534 16.1719 35.1534C14.9906 35.1534 14.0625 34.2253 14.0625 33.0441C14.0625 32.4773 14.1806 32.1863 14.4141 31.8994C14.6475 31.6139 15.0778 31.3313 15.6009 31.0655C16.6472 30.5311 18.1041 30.3202 19.2923 29.1319C20.3231 28.0955 20.6325 26.8748 21.0502 26.1858C21.4608 25.4967 21.5592 25.3069 22.4986 25.3069L22.5 25.3125Z" fill="white"/>
</svg>
